<?xml version="1.0" encoding="utf-8"?>
<!-- Generator: Adobe Illustrator 17.0.0, SVG Export Plug-In . SVG Version: 6.00 Build 0)  -->
<!DOCTYPE svg PUBLIC "-//W3C//DTD SVG 1.1//EN" "http://www.w3.org/Graphics/SVG/1.1/DTD/svg11.dtd">
<svg version="1.1" id="Layer_1" xmlns="http://www.w3.org/2000/svg" xmlns:xlink="http://www.w3.org/1999/xlink" x="0px" y="0px"
	 width="24px" height="28px" viewBox="0 0 24 28" enable-background="new 0 0 24 28" xml:space="preserve">
<title>youtube-square</title>
<path fill="#FFFFFF" d="M15.087,22.567v-3.265c0-0.687-0.208-1.039-0.603-1.039c-0.229,0-0.458,0.104-0.687,0.333v4.658
	c0.229,0.229,0.458,0.333,0.687,0.333C14.88,23.586,15.087,23.254,15.087,22.567z M18.914,20.03h1.372v-0.707
	c0-0.707-0.229-1.061-0.687-1.061s-0.687,0.354-0.687,1.061v0.707H18.914z M7.041,14.499v1.456H5.378v8.796H3.839v-8.796H2.217
	v-1.456H7.041z M11.22,17.12v7.631H9.827v-0.832c-0.54,0.624-1.061,0.936-1.581,0.936c-0.437,0-0.748-0.188-0.873-0.583
	c-0.084-0.229-0.125-0.583-0.125-1.123v-6.03H8.62v5.615c0,0.311,0,0.499,0.021,0.54c0.021,0.208,0.125,0.311,0.311,0.311
	c0.291,0,0.562-0.208,0.873-0.644v-5.822h1.393L11.22,17.12z M16.461,19.428v3.036c0,0.687-0.041,1.206-0.145,1.518
	c-0.166,0.583-0.54,0.873-1.102,0.873c-0.478,0-0.957-0.291-1.413-0.853v0.748h-1.393V14.498h1.393v3.348
	c0.437-0.54,0.916-0.832,1.413-0.832c0.562,0,0.936,0.291,1.102,0.873c0.104,0.311,0.145,0.81,0.145,1.538V19.428z M21.68,22.111
	v0.188c0,0.458-0.021,0.748-0.041,0.894c-0.041,0.311-0.145,0.583-0.311,0.832c-0.374,0.562-0.957,0.832-1.664,0.832
	c-0.728,0-1.29-0.27-1.685-0.791c-0.291-0.374-0.437-0.977-0.437-1.789v-2.683c0-0.81,0.125-1.393,0.417-1.789
	c0.395-0.52,0.957-0.791,1.664-0.791c0.687,0,1.248,0.27,1.622,0.791c0.291,0.395,0.437,0.977,0.437,1.789v1.581h-2.765v1.352
	c0,0.707,0.229,1.061,0.707,1.061c0.333,0,0.54-0.188,0.624-0.54c0-0.084,0.021-0.395,0.021-0.936h1.413L21.68,22.111z
	 M12.302,4.976v3.245c0,0.707-0.229,1.061-0.665,1.061c-0.458,0-0.665-0.354-0.665-1.061V4.976c0-0.707,0.208-1.081,0.665-1.081
	C12.073,3.895,12.302,4.269,12.302,4.976z M23.385,19.802L23.385,19.802c0-1.789,0-3.681-0.395-5.406
	c-0.291-1.227-1.29-2.121-2.474-2.245c-2.828-0.311-5.697-0.311-8.568-0.311c-2.849,0-5.719,0-8.547,0.311
	c-1.206,0.125-2.204,1.019-2.474,2.245c-0.395,1.726-0.417,3.619-0.417,5.406l0,0c0,1.767,0,3.66,0.417,5.406
	c0.27,1.206,1.268,2.1,2.454,2.245c2.849,0.311,5.719,0.311,8.568,0.311s5.719,0,8.568-0.311c1.186-0.145,2.184-1.039,2.454-2.245
	c0.417-1.747,0.417-3.639,0.417-5.406H23.385z M7.685,6.264l1.871-6.155h-1.56L6.936,4.164L5.834,0.109H4.212
	c0.311,0.957,0.665,1.912,0.977,2.869c0.499,1.456,0.81,2.537,0.957,3.286v4.18h1.538v-4.18H7.685z M13.694,7.949V5.246
	c0-0.81-0.145-1.413-0.437-1.809c-0.395-0.52-0.936-0.791-1.622-0.791c-0.707,0-1.248,0.27-1.622,0.791
	C9.721,3.833,9.576,4.436,9.576,5.246v2.703c0,0.81,0.145,1.413,0.437,1.809c0.374,0.52,0.916,0.791,1.622,0.791
	c0.687,0,1.227-0.27,1.622-0.791C13.549,9.384,13.694,8.76,13.694,7.949z M17.459,10.444h1.393V2.751h-1.393v5.885
	c-0.311,0.437-0.603,0.644-0.873,0.644c-0.188,0-0.311-0.104-0.333-0.333c-0.021-0.041-0.021-0.208-0.021-0.54V2.751h-1.393v6.093
	c0,0.54,0.041,0.894,0.125,1.143c0.145,0.374,0.458,0.562,0.894,0.562c0.52,0,1.039-0.311,1.601-0.936V10.444z"/>
</svg>
